<svg xmlns="http://www.w3.org/2000/svg" viewBox="0 0 512 512">
  <rect width="512" height="512" rx="64" fill="#0f0f23"/>
  <!-- Cave outline -->
  <path d="M60 440 Q80 200 160 160 Q200 140 240 180 Q260 200 256 260 Q252 300 280 300 Q310 300 320 240 Q330 180 380 140 Q430 100 460 200 L460 440 Z" fill="#1a1a3e" stroke="#3a3a6e" stroke-width="4"/>
  <!-- Diver body -->
  <ellipse cx="256" cy="320" rx="28" ry="12" fill="#e0e0e0" transform="rotate(-20 256 320)"/>
  <!-- Diver head -->
  <circle cx="232" cy="312" r="9" fill="#e0e0e0"/>
  <!-- Tank on back -->
  <rect x="250" y="306" width="30" height="10" rx="4" fill="#4a9eff" transform="rotate(-20 265 311)"/>
  <!-- Fins -->
  <path d="M282 330 L306 340 L304 334 L284 326" fill="#e0e0e0"/>
  <!-- Bubbles -->
  <circle cx="218" cy="296" r="4" fill="none" stroke="#4a9eff" stroke-width="1.5" opacity="0.8"/>
  <circle cx="210" cy="280" r="3" fill="none" stroke="#4a9eff" stroke-width="1.5" opacity="0.6"/>
  <circle cx="216" cy="264" r="2.5" fill="none" stroke="#4a9eff" stroke-width="1.5" opacity="0.4"/>
  <!-- Dive line -->
  <path d="M160 160 L230 310" fill="none" stroke="#ffd700" stroke-width="2" stroke-dasharray="6 4" opacity="0.6"/>
</svg>
